<svg width="570" height="200" viewBox="0 0 570 200" xmlns="http://www.w3.org/2000/svg" xmlns:xlink="http://www.w3.org/1999/xlink">
  <title>
    activity-teaser-fallback-img
  </title>
  <defs>
    <path id="a" d="M0 0h570v200H0z"/>
  </defs>
  <g fill="none" fill-rule="evenodd">
    <mask id="b" fill="#fff">
      <use xlink:href="#a"/>
    </mask>
    <use fill="#008486" xlink:href="#a"/>
    <path d="M97.5-20.5c3.39 0 6.31 1.24 8.79 3.71A12.01 12.01 0 0 1 110-8v56.25c0 3.39-1.24 6.32-3.71 8.79a12.01 12.01 0 0 1-8.79 3.71H69.37l-24.4 18.36c-.79.52-1.6.55-2.45.1a2.2 2.2 0 0 1-1.27-2.05V60.75H22.5c-3.39 0-6.32-1.24-8.79-3.71A12.01 12.01 0 0 1 10 48.25V-8c0-3.39 1.24-6.31 3.71-8.79a12.01 12.01 0 0 1 8.79-3.71h75zm300 0c3.39 0 6.31 1.24 8.79 3.71A12.01 12.01 0 0 1 410-8v56.25c0 3.39-1.24 6.32-3.71 8.79a12.01 12.01 0 0 1-8.79 3.71h-28.13l-24.4 18.36c-.79.52-1.6.55-2.45.1a2.2 2.2 0 0 1-1.27-2.05V60.75H322.5c-3.39 0-6.32-1.24-8.79-3.71a12.01 12.01 0 0 1-3.71-8.79V-8c0-3.39 1.24-6.31 3.71-8.79a12.01 12.01 0 0 1 8.79-3.71h75zm-150 67c3.39 0 6.31 1.24 8.79 3.71A12.01 12.01 0 0 1 260 59v56.25c0 3.39-1.24 6.32-3.71 8.79a12.01 12.01 0 0 1-8.79 3.71h-28.13l-24.4 18.36c-.79.52-1.6.55-2.45.1a2.2 2.2 0 0 1-1.27-2.05v-16.41H172.5c-3.39 0-6.32-1.24-8.79-3.71a12.01 12.01 0 0 1-3.71-8.79V59c0-3.39 1.24-6.31 3.71-8.79a12.01 12.01 0 0 1 8.79-3.71h75zm300 0c3.39 0 6.31 1.24 8.79 3.71A12.01 12.01 0 0 1 560 59v56.25c0 3.39-1.24 6.32-3.71 8.79a12.01 12.01 0 0 1-8.79 3.71h-28.13l-24.4 18.36c-.79.52-1.6.55-2.45.1a2.2 2.2 0 0 1-1.27-2.05v-16.41H472.5c-3.39 0-6.32-1.24-8.79-3.71a12.01 12.01 0 0 1-3.71-8.79V59c0-3.39 1.24-6.31 3.71-8.79a12.01 12.01 0 0 1 8.79-3.71h75zm-450 69c3.39 0 6.31 1.24 8.79 3.71A12.01 12.01 0 0 1 110 128v56.25c0 3.39-1.24 6.32-3.71 8.79a12.01 12.01 0 0 1-8.79 3.71H69.37l-24.4 18.36c-.79.52-1.6.55-2.45.1a2.2 2.2 0 0 1-1.27-2.05v-16.41H22.5c-3.39 0-6.32-1.24-8.79-3.71a12.01 12.01 0 0 1-3.71-8.79V128c0-3.39 1.24-6.31 3.71-8.79a12.01 12.01 0 0 1 8.79-3.71h75zm300 0c3.39 0 6.31 1.24 8.79 3.71A12.01 12.01 0 0 1 410 128v56.25c0 3.39-1.24 6.32-3.71 8.79a12.01 12.01 0 0 1-8.79 3.71h-28.13l-24.4 18.36c-.79.52-1.6.55-2.45.1a2.2 2.2 0 0 1-1.27-2.05v-16.41H322.5c-3.39 0-6.32-1.24-8.79-3.71a12.01 12.01 0 0 1-3.71-8.79V128c0-3.39 1.24-6.31 3.71-8.79a12.01 12.01 0 0 1 8.79-3.71h75zm-150 67c3.39 0 6.31 1.24 8.79 3.71A12.01 12.01 0 0 1 260 195v56.25c0 3.39-1.24 6.32-3.71 8.79a12.01 12.01 0 0 1-8.79 3.71h-28.13l-24.4 18.36c-.79.52-1.6.55-2.45.1a2.2 2.2 0 0 1-1.27-2.05v-16.41H172.5c-3.39 0-6.32-1.24-8.79-3.71a12.01 12.01 0 0 1-3.71-8.79V195c0-3.39 1.24-6.31 3.71-8.79a12.01 12.01 0 0 1 8.79-3.71h75zm300 0c3.39 0 6.31 1.24 8.79 3.71A12.01 12.01 0 0 1 560 195v56.25c0 3.39-1.24 6.32-3.71 8.79a12.01 12.01 0 0 1-8.79 3.71h-28.13l-24.4 18.36c-.79.52-1.6.55-2.45.1a2.2 2.2 0 0 1-1.27-2.05v-16.41H472.5c-3.39 0-6.32-1.24-8.79-3.71a12.01 12.01 0 0 1-3.71-8.79V195c0-3.39 1.24-6.31 3.71-8.79a12.01 12.01 0 0 1 8.79-3.71h75zm-300-272c3.39 0 6.31 1.24 8.79 3.71A12.01 12.01 0 0 1 260-77v56.25c0 3.39-1.24 6.32-3.71 8.79a12.01 12.01 0 0 1-8.79 3.71h-28.13l-24.4 18.36c-.79.52-1.6.55-2.45.1a2.2 2.2 0 0 1-1.27-2.05V-8.25H172.5c-3.39 0-6.32-1.24-8.79-3.71a12.01 12.01 0 0 1-3.71-8.79V-77c0-3.39 1.24-6.31 3.71-8.79a12.01 12.01 0 0 1 8.79-3.71h75zm300 0c3.39 0 6.31 1.24 8.79 3.71A12.01 12.01 0 0 1 560-77v56.25c0 3.39-1.24 6.32-3.71 8.79a12.01 12.01 0 0 1-8.79 3.71h-28.13l-24.4 18.36c-.79.52-1.6.55-2.45.1a2.2 2.2 0 0 1-1.27-2.05V-8.25H472.5c-3.39 0-6.32-1.24-8.79-3.71a12.01 12.01 0 0 1-3.71-8.79V-77c0-3.39 1.24-6.31 3.71-8.79a12.01 12.01 0 0 1 8.79-3.71h75z" fill="#333" opacity=".2" mask="url(#b)"/>
  </g>
</svg>
