<svg xmlns="http://www.w3.org/2000/svg" xmlns:xlink="http://www.w3.org/1999/xlink" width="137" height="30" viewBox="0 0 137 30">
  <defs>
    <path id="a" d="M.26.4H19.6v29.54H.26z"/>
  </defs>
  <g fill="none" fill-rule="evenodd">
    <path fill="#0E1318" d="M102.14 28.63c0 .75.54 1.12 1.08 1.12s1.08-.37 1.08-1.12V1.32c0-.75-.54-1.13-1.08-1.13s-1.08.38-1.08 1.13v27.3m18.92-1.2h-5.87c-.83 0-1.08-.33-1.08-1.24V3.73c0-.92.25-1.25 1.08-1.25h5.58c8.85 0 13.05 5.2 13.05 12.47 0 7.48-4.66 12.47-12.76 12.47zM121.18.4h-6.65c-1.75 0-2.58.92-2.58 2.79v23.53c0 1.87.83 2.78 2.58 2.78h6.28c9.52 0 15.25-6.07 15.25-14.76 0-8.73-5.6-14.34-14.88-14.34zM2.08 3.73c0-.75.2-.92.5-.92.29 0 .54.46.66.63l16.1 24.4c.36.54.99 1.45 2.44 1.45 1.58 0 2.41-1.12 2.41-2.82V1.36c0-.75-.5-1.13-1.04-1.13s-1.03.38-1.03 1.13v24.82c0 .74-.21.91-.5.91-.3 0-.54-.46-.67-.62L4.86 2.07C4.5 1.51 3.86.6 2.41.6.83.6 0 1.73 0 3.44v25.19c0 .75.5 1.12 1.04 1.12s1.04-.37 1.04-1.12V3.73m52.3 24.9c0 .75.5 1.12 1.03 1.12.55 0 1.04-.37 1.04-1.12V3.52c0-.75.17-.92.46-.92.3 0 .58.46.7.63l8.99 12.64c.25.37.54.54.91.54.38 0 .67-.17.92-.54l9.06-12.64c.12-.17.41-.63.7-.63.3 0 .46.17.46.92v25.1c0 .76.5 1.13 1.04 1.13s1.04-.37 1.04-1.12V3.15c0-1.71-.79-2.75-2.37-2.75-1.45 0-2.04.83-2.5 1.46l-8.3 11.84-8.32-11.84c-.42-.59-1-1.46-2.45-1.46-1.58 0-2.41 1.12-2.41 2.83v25.4"/>
    <g transform="translate(30)">
      <mask id="b" fill="#fff">
        <use xlink:href="#a"/>
      </mask>
      <path fill="#0E1318" d="M10.99 14.2c.4.4 1.1.39 1.48 0 .44-.43.31-1.1-.1-1.5l-8.2-8.72c-.46-.5-.62-.71-.62-1 0-.3.2-.5.66-.5h12.72c.75-.04 1.13-.5 1.13-1.04S17.68.4 16.93.4H3.63c-1.45 0-2.45.75-2.45 2.04 0 1.2.87 2.16 1.62 2.95l8.19 8.81m8.4 11.26c.37-.62.2-1.2-.29-1.52-.45-.3-1.09-.24-1.48.36-.49.63-2.61 3.62-7.37 3.62-3.74 0-7.82-2.21-7.82-6.94 0-4.17 4.07-6 4.8-6.33.7-.33.83-.93.56-1.43-.25-.47-.76-.73-1.46-.43-1.1.38-6.07 2.65-6.07 8.27C.26 26.6 4.71 30 10 30c4.85 0 8.1-2.29 9.4-4.54" mask="url(#b)"/>
    </g>
  </g>
</svg>
